# Hierarchical Translation and Rotation (.htr) file
# Generated by EVaRT
[Header]
FileType htr
DataType HTRS
FileVersion 1
NumSegments 23
NumFrames 6
DataFrameRate 120
EulerRotationOrder ZYX
CalibrationUnits mm
RotationUnits Degrees
GlobalAxisofGravity Y
BoneLengthAxis Y
ScaleFactor 1
[SegmentNames&Hierarchy]
#CHILD            PARENT
DaveRoot          GLOBAL
Spine1            DaveRoot
Spine2            Spine1
Spine3            Spine2
Spine4            Spine3
Neck              Spine4
Head              Neck
LClavicle         Spine4
LUpperArm         LClavicle
LLowerArm         LUpperArm
LHand             LLowerArm
RClavicle         Spine4
RUpperArm         RClavicle
RLowerArm         RUpperArm
RHand             RLowerArm
RUpperLeg         DaveRoot
RLowerLeg         RUpperLeg
RFoot             RLowerLeg
RToes             RFoot
LUpperLeg         DaveRoot
LLowerLeg         LUpperLeg
LFoot             LLowerLeg
LToes             LFoot
[BasePosition]
#SegmentName      Tx   Ty   Tz   Rx   Ry   Rz   BoneLength
DaveRoot          209.518790	1014.822220	-351.309218	15.931515	2.618173	-0.612188	100.000000
Spine1            0.000000	100.000000	0.000000	-16.793488	0.293500	-0.473802	100.000000
Spine2            0.000000	100.000000	0.000000	4.672625	0.349043	-0.357343	100.000000
Spine3            0.000000	100.000000	0.000000	10.998894	0.386292	-0.316706	100.000000
Spine4            0.000000	100.000000	0.000000	12.138707	1.462162	1.217268	100.000000
Neck              0.000000	100.000000	0.000000	12.810480	14.955418	1.620949	80.000000
Head              0.000000	80.000000	0.000000	-44.031424	-2.973179	-2.367844	200.000000
LClavicle         0.000000	100.000000	0.000000	-0.941684	-2.086145	-99.536471	200.000000
LUpperArm         0.000000	200.000000	0.000000	10.837043	12.737179	14.309854	300.000000
LLowerArm         0.000000	300.000000	0.000000	2.090205	2.175812	1.895763	200.000000
LHand             0.000000	200.000000	0.000000	-1.396534	-1.768569	8.793625	120.000000
RClavicle         0.000000	100.000000	0.000000	1.262055	-3.879913	108.124298	200.000000
RUpperArm         0.000000	200.000000	0.000000	10.866823	4.985308	-18.992585	300.000000
RLowerArm         0.000000	300.000000	0.000000	5.968673	-3.682026	-7.348670	200.000000
RHand             0.000000	200.000000	0.000000	-1.057110	-1.690862	-7.465634	120.000000
RUpperLeg         -115.911102	-10.000000	31.058285	24.909801	27.531946	-169.439912	530.000000
RLowerLeg         0.000000	530.000000	0.000000	-7.321572	0.479387	-2.520024	460.000000
RFoot             0.000000	460.000000	0.000000	82.352420	-1.863170	1.930421	130.000000
RToes             0.000000	130.000000	0.000000	17.737744	0.005479	-0.002881	100.000000
LUpperLeg         115.911102	-10.000000	31.058285	23.717246	9.590578	-171.144790	530.000000
LLowerLeg         0.000000	530.000000	0.000000	-5.150575	-3.275937	3.046484	460.000000
LFoot             0.000000	460.000000	0.000000	77.933010	-13.262104	9.769004	130.000000
LToes             0.000000	130.000000	0.000000	27.000770	-0.000000	-0.000086	100.000000
#Beginning of Data.
[DaveRoot]
#Fr	Tx	Ty	Tz	Rx	Ry	Rz	SF
807	1225.087453	5.602221	438.252723	-137.103935	-50.571066	166.594400	1.000000	
808	1221.083623	5.483333	436.411157	-136.907046	-50.787617	166.960375	1.000000	
809	1217.523893	4.222829	434.620524	-137.115485	-50.835927	167.021566	1.000000	
810	1213.060401	4.004794	432.608064	-136.975062	-50.976913	167.438343	1.000000	
811	1209.070866	2.538722	430.697334	-137.221953	-50.946533	167.525530	1.000000	
812	1204.117979	2.194147	428.537581	-137.102665	-51.020892	167.944575	1.000000	
[Spine1]
#Fr	Tx	Ty	Tz	Rx	Ry	Rz	SF
807	0.000000	0.000000	0.000000	1.536128	-2.980851	-1.476512	1.000000	
808	0.000000	0.000000	0.000000	1.073097	-2.959235	-1.330254	1.000000	
809	0.000000	0.000000	0.000000	1.540665	-3.080416	-1.363819	1.000000	
810	0.000000	0.000000	0.000000	1.108708	-3.059058	-1.222814	1.000000	
811	0.000000	0.000000	0.000000	1.553123	-3.169486	-1.270825	1.000000	
812	0.000000	0.000000	0.000000	1.145965	-3.156647	-1.147081	1.000000	
[Spine2]
#Fr	Tx	Ty	Tz	Rx	Ry	Rz	SF
807	0.000000	0.000000	0.000000	1.536128	-2.980851	-1.476512	1.000000	
808	0.000000	0.000000	0.000000	1.073097	-2.959235	-1.330254	1.000000	
809	0.000000	0.000000	0.000000	1.540665	-3.080416	-1.363819	1.000000	
810	0.000000	0.000000	0.000000	1.108708	-3.059058	-1.222814	1.000000	
811	0.000000	0.000000	0.000000	1.553123	-3.169486	-1.270825	1.000000	
812	0.000000	0.000000	0.000000	1.145965	-3.156647	-1.147081	1.000000	
[Spine3]
#Fr	Tx	Ty	Tz	Rx	Ry	Rz	SF
807	0.000000	0.000000	0.000000	1.536128	-2.980851	-1.476512	1.000000	
808	0.000000	0.000000	0.000000	1.073097	-2.959235	-1.330254	1.000000	
809	0.000000	0.000000	0.000000	1.540665	-3.080416	-1.363819	1.000000	
810	0.000000	0.000000	0.000000	1.108708	-3.059058	-1.222814	1.000000	
811	0.000000	0.000000	0.000000	1.553123	-3.169486	-1.270825	1.000000	
812	0.000000	0.000000	0.000000	1.145965	-3.156647	-1.147081	1.000000	
[Spine4]
#Fr	Tx	Ty	Tz	Rx	Ry	Rz	SF
807	0.000000	0.000000	0.000000	1.536128	-2.980851	-1.476512	1.000000	
808	0.000000	0.000000	0.000000	1.073097	-2.959235	-1.330254	1.000000	
809	0.000000	0.000000	0.000000	1.540665	-3.080416	-1.363819	1.000000	
810	0.000000	0.000000	0.000000	1.108708	-3.059058	-1.222814	1.000000	
811	0.000000	0.000000	0.000000	1.553123	-3.169486	-1.270825	1.000000	
812	0.000000	0.000000	0.000000	1.145965	-3.156647	-1.147081	1.000000	
[Neck]
#Fr	Tx	Ty	Tz	Rx	Ry	Rz	SF
807	0.000000	0.000000	0.000000	-6.470505	19.248916	-2.050992	1.000000	
808	0.000000	0.000000	0.000000	-4.894000	19.524475	-1.067862	1.000000	
809	0.000000	0.000000	0.000000	-6.502965	19.326628	-2.061254	1.000000	
810	0.000000	0.000000	0.000000	-5.061744	19.584194	-1.182527	1.000000	
811	0.000000	0.000000	0.000000	-6.556809	19.436089	-2.099915	1.000000	
812	0.000000	0.000000	0.000000	-5.229150	19.719848	-1.287846	1.000000	
[Head]
#Fr	Tx	Ty	Tz	Rx	Ry	Rz	SF
807	0.000000	0.000000	0.000000	-6.470505	19.248916	-2.050992	1.000000	
808	0.000000	0.000000	0.000000	-4.894000	19.524475	-1.067862	1.000000	
809	0.000000	0.000000	0.000000	-6.502965	19.326628	-2.061254	1.000000	
810	0.000000	0.000000	0.000000	-5.061744	19.584194	-1.182527	1.000000	
811	0.000000	0.000000	0.000000	-6.556809	19.436089	-2.099915	1.000000	
812	0.000000	0.000000	0.000000	-5.229150	19.719848	-1.287846	1.000000	
[LClavicle]
#Fr	Tx	Ty	Tz	Rx	Ry	Rz	SF
807	0.000000	0.000000	0.000000	7.131790	0.176773	-6.330390	1.000000	
808	0.000000	0.000000	0.000000	11.002624	0.343483	-6.683920	1.000000	
809	0.000000	0.000000	0.000000	7.406474	0.127178	-5.896108	1.000000	
810	0.000000	0.000000	0.000000	10.933926	0.290687	-6.422219	1.000000	
811	0.000000	0.000000	0.000000	7.548726	0.076267	-5.493355	1.000000	
812	0.000000	0.000000	0.000000	10.743745	0.235571	-6.159185	1.000000	
[LUpperArm]
#Fr	Tx	Ty	Tz	Rx	Ry	Rz	SF
807	0.000000	0.000000	0.000000	51.358385	14.035978	-14.640303	1.000000	
808	0.000000	0.000000	0.000000	40.145169	17.967347	-12.594909	1.000000	
809	0.000000	0.000000	0.000000	50.739317	12.092972	-14.354582	1.000000	
810	0.000000	0.000000	0.000000	40.283388	16.568220	-11.264543	1.000000	
811	0.000000	0.000000	0.000000	50.223724	10.459039	-13.648966	1.000000	
812	0.000000	0.000000	0.000000	40.648543	15.613651	-9.480110	1.000000	
[LLowerArm]
#Fr	Tx	Ty	Tz	Rx	Ry	Rz	SF
807	0.000000	0.000000	0.000000	-10.174898	-0.000000	0.000000	1.000000	
808	0.000000	0.000000	0.000000	9.824438	-0.000000	0.000000	1.000000	
809	0.000000	0.000000	0.000000	-9.507135	-0.000000	0.000000	1.000000	
810	0.000000	0.000000	0.000000	9.268305	-0.000000	0.000000	1.000000	
811	0.000000	0.000000	0.000000	-8.861477	-0.000000	0.000000	1.000000	
812	0.000000	0.000000	0.000000	8.317935	-0.000000	0.000000	1.000000	
[LHand]
#Fr	Tx	Ty	Tz	Rx	Ry	Rz	SF
807	0.000000	0.000000	0.000000	20.389917	0.000000	-0.000000	1.000000	
808	0.000000	0.000000	0.000000	7.703041	0.000000	-0.000000	1.000000	
809	0.000000	0.000000	0.000000	19.857351	0.000000	-0.000000	1.000000	
810	0.000000	0.000000	0.000000	8.156444	0.000000	-0.000000	1.000000	
811	0.000000	0.000000	0.000000	19.207496	0.000000	-0.000000	1.000000	
812	0.000000	0.000000	0.000000	8.781842	0.000000	-0.000000	1.000000	
[RClavicle]
#Fr	Tx	Ty	Tz	Rx	Ry	Rz	SF
807	0.000000	0.000000	0.000000	4.410146	-0.536741	6.600172	1.000000	
808	0.000000	0.000000	0.000000	6.375753	-0.737727	6.247781	1.000000	
809	0.000000	0.000000	0.000000	4.593106	-0.545873	6.437851	1.000000	
810	0.000000	0.000000	0.000000	6.458137	-0.733354	6.125820	1.000000	
811	0.000000	0.000000	0.000000	4.848147	-0.562116	6.272593	1.000000	
812	0.000000	0.000000	0.000000	6.564655	-0.737037	6.052721	1.000000	
[RUpperArm]
#Fr	Tx	Ty	Tz	Rx	Ry	Rz	SF
807	0.000000	0.000000	0.000000	20.897543	-25.949482	58.482103	1.000000	
808	0.000000	0.000000	0.000000	13.588191	-17.708584	63.968254	1.000000	
809	0.000000	0.000000	0.000000	20.080244	-25.382561	59.349754	1.000000	
810	0.000000	0.000000	0.000000	13.285948	-17.668952	64.320445	1.000000	
811	0.000000	0.000000	0.000000	19.255012	-24.806422	60.183095	1.000000	
812	0.000000	0.000000	0.000000	13.041758	-17.837068	64.568172	1.000000	
[RLowerArm]
#Fr	Tx	Ty	Tz	Rx	Ry	Rz	SF
807	0.000000	0.000000	0.000000	12.165198	-0.000000	-0.000000	1.000000	
808	0.000000	0.000000	0.000000	22.675720	-0.000000	-0.000000	1.000000	
809	0.000000	0.000000	0.000000	12.690389	-0.000000	-0.000000	1.000000	
810	0.000000	0.000000	0.000000	22.589503	-0.000000	-0.000000	1.000000	
811	0.000000	0.000000	0.000000	13.354168	-0.000000	-0.000000	1.000000	
812	0.000000	0.000000	0.000000	22.484274	-0.000000	-0.000000	1.000000	
[RHand]
#Fr	Tx	Ty	Tz	Rx	Ry	Rz	SF
807	0.000000	0.000000	0.000000	12.273032	-2.752962	-1.233741	1.000000	
808	0.000000	0.000000	0.000000	0.171712	-6.268193	2.278869	1.000000	
809	0.000000	0.000000	0.000000	12.120889	-3.232045	-1.614324	1.000000	
810	0.000000	0.000000	0.000000	0.769046	-6.480787	1.839493	1.000000	
811	0.000000	0.000000	0.000000	11.806267	-3.615362	-1.827199	1.000000	
812	0.000000	0.000000	0.000000	1.379122	-6.499959	1.474769	1.000000	
[RUpperLeg]
#Fr	Tx	Ty	Tz	Rx	Ry	Rz	SF
807	0.000000	0.000000	0.000000	22.553618	-20.481343	5.273847	1.000000	
808	0.000000	0.000000	0.000000	22.668930	-20.040022	6.067258	1.000000	
809	0.000000	0.000000	0.000000	22.471282	-19.643715	6.516877	1.000000	
810	0.000000	0.000000	0.000000	22.524158	-19.191324	7.328292	1.000000	
811	0.000000	0.000000	0.000000	22.296231	-18.767687	7.781956	1.000000	
812	0.000000	0.000000	0.000000	22.306023	-18.263871	8.594273	1.000000	
[RLowerLeg]
#Fr	Tx	Ty	Tz	Rx	Ry	Rz	SF
807	0.000000	0.000000	0.000000	-40.427219	-0.000000	-0.000000	1.000000	
808	0.000000	0.000000	0.000000	-38.653387	0.000000	-0.000000	1.000000	
809	0.000000	0.000000	0.000000	-37.173584	-0.000000	-0.000000	1.000000	
810	0.000000	0.000000	0.000000	-35.318917	-0.000000	-0.000000	1.000000	
811	0.000000	0.000000	0.000000	-33.814882	0.000000	-0.000000	1.000000	
812	0.000000	0.000000	0.000000	-31.926357	-0.000000	-0.000000	1.000000	
[RFoot]
#Fr	Tx	Ty	Tz	Rx	Ry	Rz	SF
807	0.000000	0.000000	0.000000	4.770661	1.423332	-10.052152	1.000000	
808	0.000000	0.000000	0.000000	4.834416	1.307573	-9.900010	1.000000	
809	0.000000	0.000000	0.000000	5.059300	1.291178	-9.699883	1.000000	
810	0.000000	0.000000	0.000000	5.027023	1.302510	-9.402299	1.000000	
811	0.000000	0.000000	0.000000	5.149306	1.500101	-9.021069	1.000000	
812	0.000000	0.000000	0.000000	4.943281	1.719091	-8.514524	1.000000	
[RToes]
#Fr	Tx	Ty	Tz	Rx	Ry	Rz	SF
807	0.000000	0.000000	0.000000	2.125865	0.000000	0.000000	1.000000	
808	0.000000	0.000000	0.000000	2.006698	0.000000	0.000000	1.000000	
809	0.000000	0.000000	0.000000	1.790843	-0.000000	0.000000	1.000000	
810	0.000000	0.000000	0.000000	1.549763	0.000000	0.000000	1.000000	
811	0.000000	0.000000	0.000000	1.185021	0.000000	0.000000	1.000000	
812	0.000000	0.000000	0.000000	0.863388	0.000000	0.000000	1.000000	
[LUpperLeg]
#Fr	Tx	Ty	Tz	Rx	Ry	Rz	SF
807	0.000000	0.000000	0.000000	-0.042424	-8.493844	-10.803980	1.000000	
808	0.000000	0.000000	0.000000	0.169840	-8.323155	-10.542417	1.000000	
809	0.000000	0.000000	0.000000	-0.120928	-8.331914	-10.555363	1.000000	
810	0.000000	0.000000	0.000000	0.039046	-8.168197	-10.312932	1.000000	
811	0.000000	0.000000	0.000000	-0.300120	-8.197253	-10.361998	1.000000	
812	0.000000	0.000000	0.000000	-0.216532	-8.044710	-10.169542	1.000000	
[LLowerLeg]
#Fr	Tx	Ty	Tz	Rx	Ry	Rz	SF
807	0.000000	0.000000	0.000000	-14.486334	0.000000	0.000000	1.000000	
808	0.000000	0.000000	0.000000	-14.558550	0.000000	0.000000	1.000000	
809	0.000000	0.000000	0.000000	-14.773972	-0.000000	-0.000000	1.000000	
810	0.000000	0.000000	0.000000	-14.817390	0.000000	0.000000	1.000000	
811	0.000000	0.000000	0.000000	-15.006882	-0.000000	-0.000000	1.000000	
812	0.000000	0.000000	0.000000	-14.968321	-0.000000	-0.000000	1.000000	
[LFoot]
#Fr	Tx	Ty	Tz	Rx	Ry	Rz	SF
807	0.000000	0.000000	0.000000	23.350725	15.000699	5.785004	1.000000	
808	0.000000	0.000000	0.000000	23.536693	15.021441	5.982180	1.000000	
809	0.000000	0.000000	0.000000	23.847430	15.188499	6.308256	1.000000	
810	0.000000	0.000000	0.000000	24.043742	15.272037	6.639386	1.000000	
811	0.000000	0.000000	0.000000	24.377325	15.531514	7.122704	1.000000	
812	0.000000	0.000000	0.000000	24.552250	15.705404	7.576002	1.000000	
[LToes]
#Fr	Tx	Ty	Tz	Rx	Ry	Rz	SF
807	0.000000	0.000000	0.000000	3.357018	-0.000000	-0.000000	1.000000	
808	0.000000	0.000000	0.000000	3.532087	-0.000000	-0.000000	1.000000	
809	0.000000	0.000000	0.000000	3.795958	-0.000000	-0.000000	1.000000	
810	0.000000	0.000000	0.000000	3.918865	-0.000000	-0.000000	1.000000	
811	0.000000	0.000000	0.000000	4.152794	-0.000000	-0.000000	1.000000	
812	0.000000	0.000000	0.000000	4.247388	-0.000000	-0.000000	1.000000	
